<?xml version="1.0" encoding="UTF-8" standalone="no"?>
<!--U+25A2-->

<svg
   xmlns:dc="http://purl.org/dc/elements/1.1/"
   xmlns:cc="http://creativecommons.org/ns#"
   xmlns:rdf="http://www.w3.org/1999/02/22-rdf-syntax-ns#"
   xmlns:svg="http://www.w3.org/2000/svg"
   xmlns="http://www.w3.org/2000/svg"
   xmlns:sodipodi="http://sodipodi.sourceforge.net/DTD/sodipodi-0.dtd"
   xmlns:inkscape="http://www.inkscape.org/namespaces/inkscape"
   width="200"
   height="200"
   version="1.1"
   id="svg2275"
   sodipodi:docname="gammadex_square_logo.svg"
   inkscape:version="0.92.3 (2405546, 2018-03-11)">
  <metadata
     id="metadata2281">
    <rdf:RDF>
      <cc:Work
         rdf:about="">
        <dc:format>image/svg+xml</dc:format>
        <dc:type
           rdf:resource="http://purl.org/dc/dcmitype/StillImage" />
        <dc:title></dc:title>
      </cc:Work>
    </rdf:RDF>
  </metadata>
  <defs
     id="defs2279" />
  <sodipodi:namedview
     pagecolor="#ffffff"
     bordercolor="#666666"
     borderopacity="1"
     objecttolerance="10000"
     gridtolerance="10"
     guidetolerance="10"
     inkscape:pageopacity="0"
     inkscape:pageshadow="2"
     inkscape:window-width="1920"
     inkscape:window-height="1145"
     id="namedview2277"
     showgrid="true"
     inkscape:pagecheckerboard="true"
     inkscape:lockguides="true"
     showguides="false"
     inkscape:zoom="1.3111111"
     inkscape:cx="226.88886"
     inkscape:cy="111.85999"
     inkscape:window-x="0"
     inkscape:window-y="29"
     inkscape:window-maximized="1"
     inkscape:current-layer="svg2275">
    <inkscape:grid
       type="xygrid"
       id="grid2846" />
  </sodipodi:namedview>
  <rect
     style="fill:#375a7f;fill-opacity:1;stroke:#375a7f;stroke-width:0.92379832;stroke-miterlimit:4;stroke-dasharray:none;stroke-opacity:1"
     id="rect2852"
     width="200"
     height="170"
     x="0"
     y="15"
     ry="17" />
  <g
     aria-label="Ɣ"
     transform="scale(0.97871251,1.0217505)"
     style="font-style:normal;font-variant:normal;font-weight:bold;font-stretch:normal;font-size:104.63265991px;line-height:40.87213516px;font-family:'Hussar Woodtype';-inkscape-font-specification:'Hussar Woodtype Bold';font-variant-ligatures:normal;font-variant-caps:normal;font-variant-numeric:normal;font-feature-settings:normal;text-align:start;letter-spacing:0px;word-spacing:0px;writing-mode:lr-tb;text-anchor:start;fill:#000000;fill-opacity:1;stroke:none;stroke-width:4.74116755;stroke-miterlimit:4;stroke-dasharray:none"
     id="text2874">
    <path
       d="m 148.43516,120.84637 0.73243,-0.73243 -33.69171,-46.456904 28.25082,-39.865043 -0.73243,-0.732429 H 118.51022 L 117.7778,33.791993 102.60606,56.288015 87.434324,33.791993 86.701895,33.059564 H 63.26418 l -0.732429,0.732429 27.204492,39.865043 -32.64539,46.456904 0.732428,0.73243 z M 112.96469,106.82559 H 92.142794 L 102.50143,91.758487 Z"
       style="fill:#000000;fill-opacity:0;stroke:#ffffff;stroke-width:4.74116755;stroke-miterlimit:4;stroke-dasharray:none;stroke-opacity:1"
       id="path4537"
       inkscape:connector-curvature="0" />
  </g>
  <g
     aria-label="GammaDEX"
     transform="scale(1.0076604,0.9923978)"
     style="font-style:normal;font-variant:normal;font-weight:bold;font-stretch:normal;font-size:64.70785522px;line-height:25.27650452px;font-family:'Hussar Woodtype';-inkscape-font-specification:'Hussar Woodtype Bold';font-variant-ligatures:normal;font-variant-caps:normal;font-variant-numeric:normal;font-feature-settings:normal;text-align:start;letter-spacing:0px;word-spacing:0px;writing-mode:lr-tb;text-anchor:start;fill:#ffffff;fill-opacity:1;stroke:#ffffff;stroke-width:1.01106024;stroke-opacity:1"
     id="text2878">
    <path
       d="M 32.433557,153.39099 H 21.638131 v 4.11434 h 5.37884 c 0,2.84984 -2.528998,4.4918 -5.07687,4.4918 -3.283924,0 -5.926161,-3.2273 -5.926161,-7.19066 0,-4.03884 2.642237,-7.30389 5.926161,-7.30389 2.076043,0 3.850117,0.81154 5.208982,3.00082 l 3.491528,-3.83124 c -2.038298,-2.45351 -4.888139,-3.98223 -9.00248,-3.98223 -6.567847,0 -11.399366,5.39771 -11.399366,12.11654 0,6.68109 5.114616,12.09768 11.399366,12.09768 4.586169,0 9.512054,-2.51013 10.795426,-8.43629 z"
       style="font-style:normal;font-variant:normal;font-weight:bold;font-stretch:normal;font-size:18.87312317px;font-family:'Poland Can Into';-inkscape-font-specification:'Poland Can Into Bold';fill:#ffffff;fill-opacity:1;stroke:#ffffff;stroke-width:1.01106024;stroke-opacity:1"
       id="path5160"
       inkscape:connector-curvature="0" />
    <path
       d="m 33.719584,159.22278 c 0,4.24646 2.981954,7.68137 7.228406,7.68137 1.981678,0 3.680259,-0.81155 4.756027,-1.92506 h 0.05662 v 1.50985 h 4.982504 v -14.53231 h -5.02025 v 1.24563 c -1.189007,-1.07577 -2.812096,-1.67971 -4.774901,-1.67971 -4.246452,0 -7.228406,3.45378 -7.228406,7.70023 z m 5.322221,0 c 0,-2.00055 1.50985,-3.41603 3.416035,-3.41603 1.868439,0 3.378289,1.41548 3.378289,3.41603 0,1.98168 -1.415484,3.39717 -3.378289,3.39717 -2.038297,0 -3.416035,-1.41549 -3.416035,-3.39717 z"
       style="font-style:normal;font-variant:normal;font-weight:bold;font-stretch:normal;font-size:18.87312317px;font-family:'Poland Can Into';-inkscape-font-specification:'Poland Can Into Bold';fill:#ffffff;fill-opacity:1;stroke:#ffffff;stroke-width:1.01106024;stroke-opacity:1"
       id="path5162"
       inkscape:connector-curvature="0" />
    <path
       d="m 54.128805,166.48894 h 5.02025 v -8.58727 c 0,-1.17014 0.66056,-2.45351 2.321394,-2.45351 1.774074,0 2.547872,1.28337 2.547872,2.7366 v 8.30418 h 5.020251 v -8.68164 c 0.05662,-1.11351 0.736052,-2.26477 2.321394,-2.26477 1.774074,0 2.547872,1.2645 2.547872,2.71773 v 8.22868 h 5.02025 v -9.58755 c 0,-4.05772 -3.000826,-5.37884 -5.661937,-5.37884 -1.585342,0 -3.302796,0.79267 -4.831519,2.54787 -1.019149,-1.86844 -3.132939,-2.54787 -5.057997,-2.54787 -1.585342,0 -3.038573,0.7738 -4.17096,1.83069 h -0.05662 v -1.39661 h -5.02025 z"
       style="font-style:normal;font-variant:normal;font-weight:bold;font-stretch:normal;font-size:18.87312317px;font-family:'Poland Can Into';-inkscape-font-specification:'Poland Can Into Bold';fill:#ffffff;fill-opacity:1;stroke:#ffffff;stroke-width:1.01106024;stroke-opacity:1"
       id="path5164"
       inkscape:connector-curvature="0" />
    <path
       d="m 82.03301,166.48894 h 5.020251 v -8.58727 c 0,-1.17014 0.660559,-2.45351 2.321394,-2.45351 1.774073,0 2.547871,1.28337 2.547871,2.7366 v 8.30418 h 5.020251 v -8.68164 c 0.05662,-1.11351 0.736052,-2.26477 2.321394,-2.26477 1.774069,0 2.547869,1.2645 2.547869,2.71773 v 8.22868 h 5.02025 v -9.58755 c 0,-4.05772 -3.00082,-5.37884 -5.66193,-5.37884 -1.585346,0 -3.3028,0.79267 -4.831523,2.54787 -1.019148,-1.86844 -3.132938,-2.54787 -5.057997,-2.54787 -1.585342,0 -3.038573,0.7738 -4.17096,1.83069 h -0.05662 v -1.39661 h -5.02025 z"
       style="font-style:normal;font-variant:normal;font-weight:bold;font-stretch:normal;font-size:18.87312317px;font-family:'Poland Can Into';-inkscape-font-specification:'Poland Can Into Bold';fill:#ffffff;fill-opacity:1;stroke:#ffffff;stroke-width:1.01106024;stroke-opacity:1"
       id="path5166"
       inkscape:connector-curvature="0" />
    <path
       d="m 108.88032,159.22278 c 0,4.24646 2.98195,7.68137 7.22841,7.68137 1.98167,0 3.68026,-0.81155 4.75602,-1.92506 h 0.0566 v 1.50985 h 4.98251 v -14.53231 h -5.02025 v 1.24563 c -1.18901,-1.07577 -2.8121,-1.67971 -4.7749,-1.67971 -4.24646,0 -7.22841,3.45378 -7.22841,7.70023 z m 5.32222,0 c 0,-2.00055 1.50985,-3.41603 3.41604,-3.41603 1.86844,0 3.37829,1.41548 3.37829,3.41603 0,1.98168 -1.41549,3.39717 -3.37829,3.39717 -2.0383,0 -3.41604,-1.41549 -3.41604,-3.39717 z"
       style="font-style:normal;font-variant:normal;font-weight:bold;font-stretch:normal;font-size:18.87312317px;font-family:'Poland Can Into';-inkscape-font-specification:'Poland Can Into Bold';fill:#ffffff;fill-opacity:1;stroke:#ffffff;stroke-width:1.01106024;stroke-opacity:1"
       id="path5168"
       inkscape:connector-curvature="0" />
    <path
       d="m 129.28954,143.12401 v 23.36493 h 6.77545 c 6.43574,0 11.77683,-4.86927 11.77683,-11.70134 0,-6.79432 -5.37884,-11.66359 -11.77683,-11.66359 z m 5.32222,18.6089 v -13.85287 h 0.83042 c 3.96335,0 6.64334,3.03857 6.64334,6.94531 -0.0377,3.90673 -2.71773,6.90756 -6.64334,6.90756 z"
       style="font-style:normal;font-variant:normal;font-weight:bold;font-stretch:normal;font-size:18.87312317px;font-family:'Poland Can Into';-inkscape-font-specification:'Poland Can Into Bold';fill:#ffffff;fill-opacity:1;stroke:#ffffff;stroke-width:1.01106024;stroke-opacity:1"
       id="path5170"
       inkscape:connector-curvature="0" />
    <path
       d="m 163.55222,143.12401 h -13.36217 v 23.36493 h 13.36217 v -4.68054 h -8.03995 v -4.68053 h 7.70024 v -4.68054 h -7.70024 v -4.64278 h 8.03995 z"
       style="font-style:normal;font-variant:normal;font-weight:bold;font-stretch:normal;font-size:18.87312317px;font-family:'Poland Can Into';-inkscape-font-specification:'Poland Can Into Bold';fill:#ffffff;fill-opacity:1;stroke:#ffffff;stroke-width:1.01106024;stroke-opacity:1"
       id="path5172"
       inkscape:connector-curvature="0" />
    <path
       d="m 188.44853,166.48894 -9.11572,-12.58838 7.64361,-10.77655 h -6.62446 l -4.30308,6.28475 -4.30307,-6.28475 h -6.34137 l 7.36052,10.77655 -8.83262,12.58838 h 6.58672 l 5.52982,-7.88897 5.52983,7.88897 z"
       style="font-style:normal;font-variant:normal;font-weight:bold;font-stretch:normal;font-size:18.87312317px;font-family:'Poland Can Into';-inkscape-font-specification:'Poland Can Into Bold';fill:#ffffff;fill-opacity:1;stroke:#ffffff;stroke-width:1.01106024;stroke-opacity:1"
       id="path5174"
       inkscape:connector-curvature="0" />
  </g>
</svg>
