<?xml version="1.0" encoding="UTF-8" standalone="no"?>
<svg
   xmlns:dc="http://purl.org/dc/elements/1.1/"
   xmlns:cc="http://creativecommons.org/ns#"
   xmlns:rdf="http://www.w3.org/1999/02/22-rdf-syntax-ns#"
   xmlns:svg="http://www.w3.org/2000/svg"
   xmlns="http://www.w3.org/2000/svg"
   id="svg8"
   version="1.1"
   viewBox="0 0 172.24422 33.337521"
   height="126"
   width="651">
  <defs
     id="defs2" />
  <metadata
     id="metadata5">
    <rdf:RDF>
      <cc:Work
         rdf:about="">
        <dc:format>image/svg+xml</dc:format>
        <dc:type
           rdf:resource="http://purl.org/dc/dcmitype/StillImage" />
        <dc:title></dc:title>
      </cc:Work>
    </rdf:RDF>
  </metadata>
  <g
     transform="translate(0,-263.66224)"
     id="layer1">
    <flowRoot
       transform="scale(0.26458333)"
       style="font-style:normal;font-weight:normal;font-size:40px;line-height:1.25;font-family:sans-serif;letter-spacing:0px;word-spacing:0px;fill:#000000;fill-opacity:1;stroke:none"
       id="flowRoot3713"
       xml:space="preserve"><flowRegion
         id="flowRegion3715"><rect
           y="84.08287"
           x="38.385796"
           height="232.33508"
           width="646.49762"
           id="rect3717" /></flowRegion><flowPara
         style="font-style:normal;font-variant:normal;font-weight:bold;font-stretch:normal;font-size:40px;font-family:'Poland Can Into';-inkscape-font-specification:'Poland Can Into, Bold';font-variant-ligatures:normal;font-variant-caps:normal;font-variant-numeric:normal;font-feature-settings:normal;text-align:start;writing-mode:lr-tb;text-anchor:start"
         id="flowPara3719">Ɣ</flowPara></flowRoot>    <text
       id="text3723"
       y="34.541325"
       x="10.156241"
       style="font-style:normal;font-weight:normal;font-size:10.58333302px;line-height:1.25;font-family:sans-serif;letter-spacing:0px;word-spacing:0px;fill:#000000;fill-opacity:1;stroke:none;stroke-width:0.26458332"
       xml:space="preserve"><tspan
         style="fill:#ffffff;stroke-width:0.26458332"
         y="43.905094"
         x="10.156241"
         id="tspan3721" /></text>
    <flowRoot
       transform="scale(0.26458333)"
       style="font-style:normal;font-weight:normal;font-size:40px;line-height:1.25;font-family:sans-serif;letter-spacing:0px;word-spacing:0px;fill:#000000;fill-opacity:1;stroke:none"
       id="flowRoot3744"
       xml:space="preserve"><flowRegion
         id="flowRegion3746"><rect
           y="59.839207"
           x="46.467018"
           height="171.72594"
           width="688.92401"
           id="rect3748" /></flowRegion><flowPara
         id="flowPara3750" /></flowRoot>    <flowRoot
       style="font-style:normal;font-weight:normal;font-size:40px;line-height:1.25;font-family:sans-serif;letter-spacing:0px;word-spacing:0px;fill:#000000;fill-opacity:1;stroke:none"
       id="flowRoot3754"
       xml:space="preserve"><flowRegion
         id="flowRegion3756"><rect
           y="-140"
           x="-280"
           height="220"
           width="320"
           id="rect3758" /></flowRegion><flowPara
         id="flowPara3760" /></flowRoot>    <flowRoot
       style="font-style:normal;font-weight:normal;font-size:40px;line-height:1.25;font-family:sans-serif;letter-spacing:0px;word-spacing:0px;fill:#000000;fill-opacity:1;stroke:none"
       id="flowRoot3762"
       xml:space="preserve"><flowRegion
         id="flowRegion3764"><rect
           y="-1100"
           x="-40"
           height="580"
           width="400"
           id="rect3766" /></flowRegion><flowPara
         id="flowPara3768" /></flowRoot>    <g
       id="text55"
       style="font-style:normal;font-weight:normal;font-size:10.58333302px;line-height:1.25;font-family:sans-serif;letter-spacing:0px;word-spacing:0px;fill:#000000;fill-opacity:1;stroke:none;stroke-width:0.26458332"
       aria-label="Ɣ">
      <path
         id="path405"
         style="font-style:normal;font-variant:normal;font-weight:normal;font-stretch:normal;font-size:35.27777863px;font-family:'Poland Can Into';-inkscape-font-specification:'Poland Can Into, Normal';font-variant-ligatures:normal;font-variant-caps:normal;font-variant-numeric:normal;font-feature-settings:normal;text-align:start;writing-mode:lr-tb;text-anchor:start;fill:#f9f9f9;stroke-width:0.26458332"
         d="M 31.425953,294.73395 H 2.6040082 L 13.116786,279.77618 c 0.105834,-0.17639 0.105834,-0.35278 0,-0.52917 L 4.4384527,266.51173 h 6.8086113 l 5.256389,7.72583 c 0,0 0.3175,0.59973 0.705556,0 l 5.256389,-7.72583 h 7.161389 l -9.031112,12.73528 c -0.105833,0.17639 -0.105833,0.38806 0,0.52917 z m 0.881945,0.88195 c 0.881944,0 0.352778,-0.70556 0.352778,-0.70556 L 21.47762,279.49395 30.826231,266.33534 c 0.493889,-0.70555 -0.352778,-0.70555 -0.352778,-0.70555 h -8.255 c -0.141111,0 -0.282222,0.0705 -0.352778,0.21166 l -5.009444,7.37306 -5.009445,-7.37306 c -0.07056,-0.14111 -0.211666,-0.21166 -0.352778,-0.21166 H 3.591786 c -0.8466667,0 -0.3527778,0.70555 -0.3527778,0.70555 l 8.9958338,13.15861 -10.8302783,15.41639 c -0.49388887,0.70556 0.3527778,0.70556 0.3527778,0.70556 z m -11.147778,-4.93889 -3.951111,-5.67972 c 0,0 -0.3175,-0.56445 -0.705556,0 l -3.951111,5.67972 c 0,0 -0.493889,0.70556 0.352778,0.70556 h 7.902222 c 0,0 0.846667,0 0.352778,-0.70556 z m -1.199445,-0.17639 h -6.208889 l 3.104445,-4.48028 z" />
    </g>
    <flowRoot
       style="font-style:normal;font-weight:normal;font-size:40px;line-height:1.25;font-family:sans-serif;letter-spacing:0px;word-spacing:0px;fill:#000000;fill-opacity:1;stroke:none"
       id="flowRoot57"
       xml:space="preserve"><flowRegion
         id="flowRegion59"><rect
           y="100"
           x="40"
           height="90"
           width="90"
           id="rect61" /></flowRegion><flowPara
         id="flowPara63" /></flowRoot>    <flowRoot
       style="font-style:normal;font-weight:normal;font-size:40px;line-height:1.25;font-family:sans-serif;letter-spacing:0px;word-spacing:0px;fill:#000000;fill-opacity:1;stroke:none"
       id="flowRoot65"
       xml:space="preserve"><flowRegion
         id="flowRegion67"><rect
           y="140"
           x="130"
           height="60"
           width="50"
           id="rect69" /></flowRegion><flowPara
         id="flowPara71" /></flowRoot>    <flowRoot
       transform="matrix(0.26458333,0,0,0.26458333,0,244.08332)"
       style="font-style:normal;font-weight:normal;font-size:40px;line-height:1.25;font-family:sans-serif;letter-spacing:0px;word-spacing:0px;fill:#000000;fill-opacity:1;stroke:none"
       id="flowRoot58"
       xml:space="preserve"><flowRegion
         id="flowRegion60"><rect
           y="80"
           x="220"
           height="50"
           width="10"
           id="rect62" /></flowRegion><flowPara
         id="flowPara64"></flowPara></flowRoot>    <g
       transform="translate(5.0906132,-0.26070678)"
       id="text76"
       style="font-style:normal;font-variant:normal;font-weight:normal;font-stretch:normal;font-size:10.58333302px;line-height:1.25;font-family:'Poland Can Into';-inkscape-font-specification:'Poland Can Into, Normal';font-variant-ligatures:normal;font-variant-caps:normal;font-variant-numeric:normal;font-feature-settings:normal;text-align:start;letter-spacing:0px;word-spacing:0px;writing-mode:lr-tb;text-anchor:start;fill:#000000;fill-opacity:1;stroke:none;stroke-width:0.26458332"
       aria-label="GammaDEX">
      <path
         id="path388"
         style="font-style:normal;font-variant:normal;font-weight:bold;font-stretch:normal;font-size:14.11111069px;font-family:'Poland Can Into';-inkscape-font-specification:'Poland Can Into, Bold';font-variant-ligatures:normal;font-variant-caps:normal;font-variant-numeric:normal;font-feature-settings:normal;text-align:start;writing-mode:lr-tb;text-anchor:start;fill:#ffffff;stroke-width:0.26458332"
         d="m 48.876791,279.67097 h -8.071555 v 3.07622 h 4.021666 c 0,2.13078 -1.890888,3.35845 -3.795888,3.35845 -2.455334,0 -4.430889,-2.413 -4.430889,-5.37634 0,-3.01977 1.975555,-5.461 4.430889,-5.461 1.552222,0 2.878666,0.60678 3.894666,2.24367 l 2.610556,-2.86456 c -1.524,-1.83444 -3.654778,-2.97744 -6.731,-2.97744 -4.910667,0 -8.523111,4.03578 -8.523111,9.05933 0,4.99534 3.824111,9.04523 8.523111,9.04523 3.429,0 7.112,-1.87678 8.071555,-6.30767 z" />
      <path
         id="path390"
         style="font-style:normal;font-variant:normal;font-weight:bold;font-stretch:normal;font-size:14.11111069px;font-family:'Poland Can Into';-inkscape-font-specification:'Poland Can Into, Bold';font-variant-ligatures:normal;font-variant-caps:normal;font-variant-numeric:normal;font-feature-settings:normal;text-align:start;writing-mode:lr-tb;text-anchor:start;fill:#ffffff;stroke-width:0.26458332"
         d="m 49.838331,284.0313 c 0,3.175 2.229555,5.74323 5.404555,5.74323 1.481667,0 2.751667,-0.60678 3.556,-1.43934 h 0.04233 v 1.12889 h 3.725334 v -10.86555 h -3.753556 v 0.93133 c -0.889,-0.80433 -2.102555,-1.25589 -3.570111,-1.25589 -3.175,0 -5.404555,2.58233 -5.404555,5.75733 z m 3.979333,0 c 0,-1.49577 1.128889,-2.55411 2.554111,-2.55411 1.397,0 2.525889,1.05834 2.525889,2.55411 0,1.48167 -1.058334,2.54 -2.525889,2.54 -1.524,0 -2.554111,-1.05833 -2.554111,-2.54 z" />
      <path
         id="path392"
         style="font-style:normal;font-variant:normal;font-weight:bold;font-stretch:normal;font-size:14.11111069px;font-family:'Poland Can Into';-inkscape-font-specification:'Poland Can Into, Bold';font-variant-ligatures:normal;font-variant-caps:normal;font-variant-numeric:normal;font-feature-settings:normal;text-align:start;writing-mode:lr-tb;text-anchor:start;fill:#ffffff;stroke-width:0.26458332"
         d="m 65.097951,289.46408 h 3.753556 v -6.42055 c 0,-0.87489 0.493889,-1.83445 1.735666,-1.83445 1.326445,0 1.905,0.95956 1.905,2.04611 v 6.20889 h 3.753556 v -6.49111 c 0.04233,-0.83256 0.550333,-1.69333 1.735666,-1.69333 1.326445,0 1.905,0.94544 1.905,2.032 v 6.15244 h 3.753556 v -7.16844 c 0,-3.03389 -2.243667,-4.02167 -4.233333,-4.02167 -1.185334,0 -2.469445,0.59267 -3.612445,1.905 -0.762,-1.397 -2.342444,-1.905 -3.781777,-1.905 -1.185334,0 -2.271889,0.57856 -3.118556,1.36878 h -0.04233 v -1.04422 h -3.753556 z" />
      <path
         id="path394"
         style="font-style:normal;font-variant:normal;font-weight:bold;font-stretch:normal;font-size:14.11111069px;font-family:'Poland Can Into';-inkscape-font-specification:'Poland Can Into, Bold';font-variant-ligatures:normal;font-variant-caps:normal;font-variant-numeric:normal;font-feature-settings:normal;text-align:start;writing-mode:lr-tb;text-anchor:start;fill:#ffffff;stroke-width:0.26458332"
         d="m 85.96145,289.46408 h 3.753556 v -6.42055 c 0,-0.87489 0.493888,-1.83445 1.735666,-1.83445 1.326445,0 1.905,0.95956 1.905,2.04611 v 6.20889 h 3.753556 v -6.49111 c 0.04233,-0.83256 0.550333,-1.69333 1.735666,-1.69333 1.326446,0 1.904996,0.94544 1.904996,2.032 v 6.15244 h 3.75356 v -7.16844 c 0,-3.03389 -2.24367,-4.02167 -4.23333,-4.02167 -1.185337,0 -2.469448,0.59267 -3.612448,1.905 -0.762,-1.397 -2.342444,-1.905 -3.781778,-1.905 -1.185333,0 -2.271889,0.57856 -3.118555,1.36878 h -0.04233 v -1.04422 H 85.96145 Z" />
      <path
         id="path396"
         style="font-style:normal;font-variant:normal;font-weight:bold;font-stretch:normal;font-size:14.11111069px;font-family:'Poland Can Into';-inkscape-font-specification:'Poland Can Into, Bold';font-variant-ligatures:normal;font-variant-caps:normal;font-variant-numeric:normal;font-feature-settings:normal;text-align:start;writing-mode:lr-tb;text-anchor:start;fill:#ffffff;stroke-width:0.26458332"
         d="m 106.03473,284.0313 c 0,3.175 2.22955,5.74323 5.40455,5.74323 1.48167,0 2.75167,-0.60678 3.556,-1.43934 h 0.0423 v 1.12889 h 3.72533 v -10.86555 h -3.75356 v 0.93133 c -0.889,-0.80433 -2.10255,-1.25589 -3.57011,-1.25589 -3.175,0 -5.40455,2.58233 -5.40455,5.75733 z m 3.97933,0 c 0,-1.49577 1.12889,-2.55411 2.55411,-2.55411 1.397,0 2.52589,1.05834 2.52589,2.55411 0,1.48167 -1.05833,2.54 -2.52589,2.54 -1.524,0 -2.55411,-1.05833 -2.55411,-2.54 z" />
      <path
         id="path398"
         style="font-style:normal;font-variant:normal;font-weight:bold;font-stretch:normal;font-size:14.11111069px;font-family:'Poland Can Into';-inkscape-font-specification:'Poland Can Into, Bold';font-variant-ligatures:normal;font-variant-caps:normal;font-variant-numeric:normal;font-feature-settings:normal;text-align:start;writing-mode:lr-tb;text-anchor:start;fill:#ffffff;stroke-width:0.26458332"
         d="m 121.29435,271.99453 v 17.46955 h 5.06589 c 4.81188,0 8.80533,-3.64067 8.80533,-8.74889 0,-5.08 -4.02167,-8.72066 -8.80533,-8.72066 z m 3.97933,13.91355 v -10.35755 h 0.62089 c 2.96333,0 4.96711,2.27188 4.96711,5.19288 -0.0282,2.921 -2.032,5.16467 -4.96711,5.16467 z" />
      <path
         id="path400"
         style="font-style:normal;font-variant:normal;font-weight:bold;font-stretch:normal;font-size:14.11111069px;font-family:'Poland Can Into';-inkscape-font-specification:'Poland Can Into, Bold';font-variant-ligatures:normal;font-variant-caps:normal;font-variant-numeric:normal;font-feature-settings:normal;text-align:start;writing-mode:lr-tb;text-anchor:start;fill:#ffffff;stroke-width:0.26458332"
         d="m 146.91197,271.99453 h -9.99067 v 17.46955 h 9.99067 v -3.49955 h -6.01134 v -3.49956 h 5.75734 v -3.49956 h -5.75734 v -3.47133 h 6.01134 z" />
      <path
         id="path402"
         style="font-style:normal;font-variant:normal;font-weight:bold;font-stretch:normal;font-size:14.11111069px;font-family:'Poland Can Into';-inkscape-font-specification:'Poland Can Into, Bold';font-variant-ligatures:normal;font-variant-caps:normal;font-variant-numeric:normal;font-feature-settings:normal;text-align:start;writing-mode:lr-tb;text-anchor:start;fill:#ffffff;stroke-width:0.26458332"
         d="m 165.52651,289.46408 -6.81567,-9.41211 5.715,-8.05744 h -4.953 l -3.21733,4.699 -3.21733,-4.699 h -4.74134 l 5.50334,8.05744 -6.604,9.41211 h 4.92477 l 4.13456,-5.89844 4.13455,5.89844 z" />
    </g>
  </g>
</svg>
