<!DOCTYPE svg PUBLIC "-//W3C//DTD SVG 20010904//EN" "http://www.w3.org/TR/2001/REC-SVG-20010904/DTD/svg10.dtd">
<svg version="1.0" xmlns="http://www.w3.org/2000/svg" width="297px" height="258px" viewBox="0 0 2970 2580" preserveAspectRatio="xMidYMid meet">
<g id="layer101" fill="#010101" stroke="none">
 <path d="M1055 1690 c-462 -462 -837 -840 -832 -840 4 0 -21 -28 -56 -62 -73 -72 -110 -142 -128 -241 -40 -218 113 -438 339 -486 37 -8 422 -11 1302 -11 l1250 0 0 430 0 430 -722 0 -723 0 510 510 510 510 -300 300 c-165 165 -302 300 -305 300 -3 0 -383 -378 -845 -840z m-504 -1038 c43 -22 59 -38 81 -81 36 -68 36 -114 0 -182 -22 -43 -38 -59 -81 -81 -68 -36 -114 -36 -182 0 -43 22 -59 38 -81 81 -36 68 -36 114 0 182 22 43 38 59 81 81 31 16 69 28 91 28 22 0 60 -12 91 -28z"/>
 </g>
<g id="layer102" fill="#8a8a8a" stroke="none">
 <path d="M1292 1597 l-442 -442 122 -123 123 -122 -340 0 c-361 0 -394 -4 -492 -51 -65 -31 -154 -122 -186 -190 -14 -30 -31 -85 -38 -122 -40 -218 113 -438 339 -486 37 -8 422 -11 1302 -11 l1250 0 0 430 0 430 -897 0 -898 0 433 433 432 432 -133 133 -132 132 -443 -443z m-772 -868 c172 -39 254 -255 150 -396 -107 -145 -313 -145 -420 0 -101 138 -27 349 140 393 56 16 74 16 130 3z"/>
 </g>
<g id="layer103" fill="#cccccc" stroke="none">
 <path d="M386 899 c-28 -4 -82 -24 -122 -44 -122 -60 -199 -166 -225 -308 -40 -218 113 -438 339 -486 37 -8 422 -11 1302 -11 l1250 0 0 430 0 430 -1247 -1 c-687 -1 -1270 -5 -1297 -10z m174 -180 c210 -95 212 -377 5 -475 -166 -79 -364 50 -365 236 0 182 197 313 360 239z"/>
 </g>

</svg>