<!DOCTYPE svg PUBLIC "-//W3C//DTD SVG 20010904//EN" "http://www.w3.org/TR/2001/REC-SVG-20010904/DTD/svg10.dtd">
<svg version="1.0" xmlns="http://www.w3.org/2000/svg" width="308px" height="348px" viewBox="0 0 3080 3480" preserveAspectRatio="xMidYMid meet">
<g id="layer101" fill="#161616" stroke="none">
 <path d="M101 3083 c-52 -219 -94 -407 -94 -418 0 -11 82 -206 182 -433 99 -228 181 -416 181 -418 0 -3 -32 -50 -71 -105 l-71 -99 22 -35 22 -36 -47 -50 c-50 -54 -50 -51 -2 -106 19 -21 18 -21 -27 -63 -25 -24 -46 -47 -46 -53 0 -6 12 -24 28 -40 l27 -28 2 -324 3 -324 171 -263 c94 -145 177 -269 184 -277 11 -11 64 30 331 255 l318 269 381 41 380 42 530 -109 c292 -60 540 -111 552 -114 l23 -5 -5 117 c-3 65 -7 168 -9 228 -4 107 -6 115 -81 329 l-78 219 33 27 32 26 -41 34 -42 33 33 27 33 28 -40 42 -40 42 23 15 c12 9 22 20 22 26 0 6 -25 44 -56 85 l-56 74 33 299 32 299 -42 151 -42 151 38 41 c21 23 61 53 89 65 77 35 82 52 45 148 -17 43 -31 82 -31 85 0 7 -157 260 -168 271 -7 7 -346 90 -367 90 -5 0 -191 -32 -412 -71 -324 -56 -431 -79 -546 -116 l-142 -46 -539 186 c-296 102 -543 185 -550 185 -7 0 -47 -151 -105 -397z"/>
 </g>
<g id="layer102" fill="#757575" stroke="none">
 <path d="M101 3083 c-52 -219 -94 -407 -94 -418 0 -11 82 -206 182 -433 99 -228 181 -416 181 -419 0 -3 -32 -50 -71 -105 l-70 -99 21 -35 22 -35 -47 -50 c-50 -54 -50 -50 0 -107 l20 -24 -48 -40 c-26 -22 -47 -45 -47 -50 0 -6 14 -26 30 -45 l30 -34 0 -318 -1 -318 172 -264 c94 -145 177 -270 184 -278 11 -11 65 30 331 255 l318 269 381 41 380 42 550 -113 c303 -62 551 -112 552 -111 1 0 -2 102 -7 226 l-9 225 -77 219 -78 219 27 21 c15 12 27 26 27 31 0 6 -16 23 -36 39 l-36 28 34 28 33 28 -40 42 -40 42 23 15 c12 9 22 20 22 25 0 5 -25 42 -56 83 l-57 75 33 300 33 300 -42 151 -42 151 36 39 c38 42 43 54 21 46 -8 -3 -70 3 -138 15 -166 27 -167 28 -201 212 -15 77 -25 142 -23 144 2 2 21 -4 42 -13 39 -16 372 -88 385 -83 6 3 -130 232 -149 250 -7 7 -346 90 -367 90 -5 0 -191 -32 -412 -71 -324 -56 -431 -79 -546 -116 l-142 -46 -539 186 c-296 102 -543 185 -550 185 -7 0 -47 -151 -105 -397z m1799 -848 c-17 -25 -33 -45 -36 -45 -3 0 9 20 26 45 17 25 33 45 36 45 3 0 -9 -20 -26 -45z m-290 -16 l25 -20 -32 16 c-18 8 -33 18 -33 20 0 10 16 4 40 -16z m886 -11 c24 -17 44 -33 44 -35 0 -6 -20 6 -58 34 -17 13 -37 21 -44 17 -7 -4 -8 -3 -4 4 10 17 12 16 62 -20z m-796 -44 c0 -2 -13 2 -30 11 -16 9 -30 18 -30 21 0 2 14 -2 30 -11 17 -9 30 -18 30 -21z m140 -14 c-12 -16 -24 -30 -26 -30 -3 0 4 14 16 30 12 17 24 30 26 30 3 0 -4 -13 -16 -30z m-70 -26 c0 -2 -13 2 -30 11 -16 9 -30 18 -30 21 0 2 14 -2 30 -11 17 -9 30 -18 30 -21z m745 6 c-4 -6 -25 -20 -48 -31 -49 -25 -43 -15 11 17 44 27 45 27 37 14z"/>
 </g>
<g id="layer103" fill="#bdbdbd" stroke="none">
 <path d="M101 3083 c-52 -219 -94 -407 -94 -418 0 -11 83 -208 183 -437 l183 -417 41 -17 c72 -29 640 -226 657 -228 9 -1 145 -94 302 -206 l287 -204 -33 -36 c-19 -19 -260 -275 -536 -568 -277 -293 -502 -535 -500 -537 2 -1 143 115 313 258 l310 262 375 41 376 42 539 -110 c296 -60 542 -108 547 -106 7 2 -470 370 -978 753 -10 8 14 52 111 205 l123 195 243 87 c133 47 246 90 250 95 5 4 23 142 41 306 l33 297 -43 151 -43 151 33 34 c18 19 31 35 28 37 -2 2 -65 14 -139 26 -74 12 -134 23 -135 24 0 1 -10 14 -23 28 -17 20 -29 58 -47 159 -14 73 -25 139 -25 146 0 9 14 7 52 -8 43 -16 379 -90 385 -85 2 3 -146 240 -155 249 -7 7 -346 90 -367 90 -5 0 -191 -32 -412 -71 -324 -57 -431 -79 -546 -116 l-143 -46 -538 186 c-297 102 -544 185 -550 185 -6 0 -52 -171 -105 -397z m1853 -775 c-27 -44 -147 -208 -152 -208 -17 0 -242 135 -231 139 23 7 354 78 372 80 12 1 16 -3 11 -11z m547 -99 c80 -51 80 -52 -13 -103 -92 -50 -96 -49 -97 28 -1 27 7 49 25 73 14 18 28 33 31 33 3 0 28 -14 54 -31z"/>
 <path d="M256 1565 c9 -14 19 -24 21 -21 6 6 -20 46 -30 46 -4 0 0 -11 9 -25z"/>
 </g>
<g id="layer104" fill="#eaeaea" stroke="none">
 <path d="M195 3448 c-3 -13 -45 -195 -95 -405 l-89 -383 181 -417 c99 -230 186 -423 192 -429 6 -6 164 -64 351 -129 187 -64 349 -121 360 -125 36 -15 560 -396 560 -407 0 -6 -216 -239 -480 -519 -264 -280 -491 -522 -505 -539 -14 -16 25 12 85 64 61 51 187 157 281 236 l170 144 390 42 391 43 523 -107 c287 -59 524 -106 526 -105 1 2 -216 170 -484 374 -336 256 -486 375 -484 387 1 9 55 99 120 201 l117 185 245 87 c135 48 246 88 248 89 2 2 18 137 37 301 l33 299 -45 154 -45 154 36 36 36 35 -136 22 c-184 30 -182 28 -213 214 l-24 141 -66 60 -66 59 -80 -6 c-44 -3 -280 -28 -525 -55 l-444 -49 -537 185 c-296 102 -542 185 -548 185 -6 0 -13 -10 -16 -22z m1248 -624 c81 -141 146 -258 145 -259 -4 -2 -459 34 -467 37 -8 4 159 478 168 478 4 0 73 -115 154 -256z m1279 -351 c19 -27 37 -53 40 -58 4 -7 -22 -5 -68 4 -41 9 -74 19 -74 24 0 11 52 75 62 76 3 1 21 -20 40 -46z m-762 -328 c0 -96 3 -181 6 -189 4 -11 -60 -15 -371 -21 -207 -4 -378 -5 -381 -2 -4 4 49 50 293 256 l64 53 172 38 c95 21 182 38 194 39 21 1 21 -1 23 -174z m574 43 c26 -19 46 -45 61 -81 12 -28 43 -96 69 -150 l46 -99 -27 6 c-16 3 -109 17 -208 31 -99 15 -181 28 -182 28 -7 8 101 264 123 290 32 39 29 39 118 -25z"/>
 </g>

</svg>